<svg xmlns="http://www.w3.org/2000/svg" xmlns:xlink="http://www.w3.org/1999/xlink" viewBox="0 0 64 64"><defs fill="#424242"><style>.cls-1{fill:url(#linear-gradient);}.cls-2{fill:url(#linear-gradient-2);}</style><linearGradient id="linear-gradient" x1="24.04" y1="31.97" x2="39.96" y2="31.97" gradientUnits="userSpaceOnUse" fill="#424242"><stop offset="0" stop-color="#424242" id="id_103" fill="#424242"/><stop offset="1" stop-color="#424242" id="id_104" fill="#424242"/></linearGradient><linearGradient id="linear-gradient-2" x1="2" y1="32.04" x2="62" y2="32.04" xlink:href="#linear-gradient" fill="#424242"/></defs><g id="Layer_89" data-name="Layer 89"><path class="cls-1" d="M32,24a8,8,0,0,0-8,8c.4,10.54,15.52,10.54,15.92,0A8,8,0,0,0,32,24ZM32,36A4,4,0,0,1,32,28,4,4,0,0,1,32,36Z" id="id_101" fill="#424242"/><path class="cls-2" d="M62,18.63a2,2,0,0,0-4,0A11.42,11.42,0,0,1,47.28,30c-2.74-17.84-27.85-17.81-30.56,0A15.42,15.42,0,0,0,2,45.42a2,2,0,0,0,4,0A11.42,11.42,0,0,1,16.73,34c2.79,17.76,27.78,17.74,30.54,0A15.43,15.43,0,0,0,62,18.63ZM32,43.42A11.43,11.43,0,0,1,20.58,32c.62-15.15,22.22-15.15,22.84,0A11.43,11.43,0,0,1,32,43.42Z" id="id_102" fill="#424242"/></g></svg>